<?xml version="1.0" standalone="no"?>
<!DOCTYPE svg PUBLIC "-//W3C//DTD SVG 20010904//EN"
 "http://www.w3.org/TR/2001/REC-SVG-20010904/DTD/svg10.dtd">
<svg version="1.0" xmlns="http://www.w3.org/2000/svg"
 width="102.000000pt" height="97.000000pt" viewBox="0 0 102.000000 97.000000"
 preserveAspectRatio="xMidYMid meet">

<g transform="translate(0.000000,97.000000) scale(0.100000,-0.100000)"
fill="#000000" stroke="none">
<path d="M503 768 c-31 -39 -123 -213 -119 -224 4 -11 35 -14 135 -14 78 0
132 4 136 10 7 11 -116 232 -132 237 -5 2 -15 -2 -20 -9z m86 -113 c32 -55 57
-103 54 -107 -5 -10 -253 -11 -253 -1 0 5 69 129 107 191 8 13 18 22 23 20 5
-2 36 -48 69 -103z"/>
<path d="M319 448 c-23 -40 -53 -92 -66 -115 -14 -23 -22 -47 -18 -53 4 -6 58
-10 136 -10 105 0 131 3 135 15 7 18 -116 235 -133 235 -7 0 -31 -33 -54 -72z
m124 -51 c32 -54 57 -102 57 -108 0 -10 -242 -13 -252 -3 -5 4 53 112 109 203
18 28 16 30 86 -92z"/>
<path d="M591 410 c-34 -61 -60 -117 -57 -125 4 -12 31 -15 135 -15 78 0 132
4 136 10 8 14 -118 234 -137 238 -8 2 -38 -39 -77 -108z m148 -13 c28 -49 51
-95 51 -103 0 -11 -24 -14 -125 -14 -69 0 -125 4 -125 9 0 5 28 57 62 116 49
85 64 103 73 93 7 -7 35 -53 64 -101z"/>
</g>
</svg>
